<svg xmlns="http://www.w3.org/2000/svg" version="1.1" width="40" height="40" viewBox="0 0 40 40" fill="none">
  <g clip-path="url(#clip0)">
    <path d="M24.524 16.284L18.514 21.961L15.63 18.994C15.31 18.664 14.783 18.657 14.455 18.977C14.125 19.297 14.118 19.823 14.438 20.152L17.897 23.703C18.218 24.027 18.738 24.038 19.073 23.728L25.683 17.493C25.844 17.342 25.937 17.133 25.944 16.912C25.95 16.692 25.868 16.478 25.716 16.318C25.395 15.983 24.864 15.969 24.524 16.284Z" fill="white"></path>
    <path d="M20.065 7.548C13.196 7.548 7.611 13.133 7.611 20.002C7.611 26.871 13.196 32.456 20.065 32.456C26.933 32.456 32.519 26.871 32.519 20.002C32.519 13.133 26.933 7.548 20.065 7.548ZM20.065 30.789C14.113 30.789 9.278 25.946 9.278 20.002C9.278 14.059 14.113 9.215 20.065 9.215C26.022 9.215 30.851 14.045 30.851 20.002C30.851 25.959 26.022 30.789 20.065 30.789Z" fill="white"></path>
    <path d="M37.203 15.417L37.478 10.474C37.498 10.142 37.317 9.831 37.02 9.682L32.619 7.456L30.393 3.055C30.242 2.76 29.932 2.581 29.601 2.597L24.649 2.864L20.523 0.137C20.245 -0.046 19.884 -0.046 19.606 0.137L15.48 2.864L10.537 2.588C10.205 2.569 9.893 2.749 9.745 3.047L7.519 7.448L3.118 9.674C2.823 9.825 2.644 10.135 2.659 10.466L2.934 15.409L0.208 19.535C0.025 19.813 0.025 20.174 0.208 20.452L2.926 24.587L2.651 29.53C2.632 29.862 2.812 30.174 3.109 30.322L7.511 32.548L9.736 36.949C9.887 37.244 10.197 37.423 10.528 37.408L15.472 37.132L19.598 39.858C19.874 40.047 20.238 40.047 20.515 39.858L24.641 37.132L29.584 37.408C29.916 37.427 30.228 37.246 30.376 36.949L32.602 32.548L37.003 30.322C37.298 30.171 37.478 29.861 37.462 29.53L37.187 24.587L39.913 20.461C40.096 20.182 40.096 19.822 39.913 19.544L37.203 15.417ZM35.653 23.903C35.551 24.053 35.504 24.232 35.519 24.412L35.778 29.088L31.618 31.189C31.46 31.268 31.331 31.397 31.252 31.556L29.151 35.715L24.474 35.457C24.295 35.451 24.119 35.497 23.966 35.59L20.064 38.166L16.164 35.59C16.028 35.499 15.869 35.449 15.705 35.448H15.663L10.987 35.707L8.886 31.547C8.807 31.389 8.678 31.26 8.519 31.181L4.351 29.088L4.61 24.412C4.616 24.233 4.57 24.056 4.476 23.903L1.901 20.002L4.476 16.101C4.578 15.952 4.625 15.772 4.61 15.593L4.351 10.916L8.511 8.815C8.67 8.736 8.798 8.607 8.878 8.449L10.978 4.289L15.655 4.547C15.834 4.554 16.01 4.507 16.164 4.414L20.064 1.838L23.966 4.414C24.115 4.516 24.295 4.563 24.474 4.547L29.151 4.289L31.252 8.449C31.331 8.607 31.46 8.736 31.618 8.815L35.778 10.916L35.519 15.593C35.513 15.771 35.56 15.948 35.653 16.101L38.229 20.002L35.653 23.903Z" fill="white"></path>
  </g>
  <defs>
    <clipPath id="clip0">
      <rect width="40" height="40" fill="white"></rect>
    </clipPath>
  </defs>
</svg>
